# xmcd
#
# Track frame offsets:
#        150
#        15950
#        31390
#        49247
#        79355
#        98162
#        113062
#        135295
#        151895
#        176450
#        192342
#        215775
#
# Disc length: 3028 seconds
#
# Revision: 0
# Processed by: cddbd v1.5.1PL0 Copyright (c) Steve Scherf et al.
# Submitted via: ExactAudioCopy v0.95a5
#
DISCID=960bd20c
DTITLE=The Charlatans - Some Friendly
DYEAR=1900
DGENRE=Rock
TTITLE0=You're Not Very Well
TTITLE1=White Shirt
TTITLE2=The Only One I Know
TTITLE3=Opportunity
TTITLE4=Then
TTITLE5=109 pt2
TTITLE6=Polar Bear
TTITLE7=Believe You Me
TTITLE8=Flower
TTITLE9=Sonic
TTITLE10=Sproston Green
TTITLE11=Taurus Moaner
EXTD=
EXTT0=
EXTT1=
EXTT2=
EXTT3=
EXTT4=
EXTT5=
EXTT6=
EXTT7=
EXTT8=
EXTT9=
EXTT10=
EXTT11=
PLAYORDER=
